<?xml version="1.0" encoding="UTF-8"?><svg xmlns="http://www.w3.org/2000/svg" stroke-dasharray="none" shape-rendering="auto" font-family="'Dialog'" width="1982" text-rendering="auto" fill-opacity="1" contentScriptType="text/ecmascript" color-interpolation="auto" color-rendering="auto" preserveAspectRatio="xMidYMid meet" font-size="12" viewBox="0 0 1982 1334" fill="black" xmlns:xlink="http://www.w3.org/1999/xlink" stroke="black" image-rendering="auto" stroke-miterlimit="10" zoomAndPan="magnify" version="1.0" stroke-linecap="square" stroke-linejoin="miter" contentStyleType="text/css" font-style="normal" height="1334" stroke-width="1" stroke-dashoffset="0" font-weight="normal" stroke-opacity="1">
<!--Generated by the Batik Graphics2D SVG Generator-->
<defs id="genericDefs"/>
<g>
<defs id="defs1">
<clipPath clipPathUnits="userSpaceOnUse" id="clipPath1">
<path d="M1077 745 L1164 745 L1164 798 L1077 798 L1077 745 Z"/>
</clipPath>
<clipPath clipPathUnits="userSpaceOnUse" id="clipPath2">
<path d="M1104 798 L1137 798 L1137 814 L1104 814 L1104 798 Z"/>
</clipPath>
<clipPath clipPathUnits="userSpaceOnUse" id="clipPath3">
<path d="M1326 750 L1416 750 L1416 803 L1326 803 L1326 750 Z"/>
</clipPath>
<clipPath clipPathUnits="userSpaceOnUse" id="clipPath4">
<path d="M1336 803 L1406 803 L1406 819 L1336 819 L1336 803 Z"/>
</clipPath>
<clipPath clipPathUnits="userSpaceOnUse" id="clipPath5">
<path d="M683 725 L799 725 L799 778 L683 778 L683 725 Z"/>
</clipPath>
<clipPath clipPathUnits="userSpaceOnUse" id="clipPath6">
<path d="M693 778 L789 778 L789 794 L693 794 L693 778 Z"/>
</clipPath>
<clipPath clipPathUnits="userSpaceOnUse" id="clipPath7">
<path d="M1426 341 L1566 341 L1566 394 L1426 394 L1426 341 Z"/>
</clipPath>
<clipPath clipPathUnits="userSpaceOnUse" id="clipPath8">
<path d="M1436 394 L1556 394 L1556 410 L1436 410 L1436 394 Z"/>
</clipPath>
<clipPath clipPathUnits="userSpaceOnUse" id="clipPath9">
<path d="M987 179 L1074 179 L1074 232 L987 232 L987 179 Z"/>
</clipPath>
<clipPath clipPathUnits="userSpaceOnUse" id="clipPath10">
<path d="M1002 232 L1058 232 L1058 248 L1002 248 L1002 232 Z"/>
</clipPath>
<clipPath clipPathUnits="userSpaceOnUse" id="clipPath11">
<path d="M952 51 L1110 51 L1110 104 L952 104 L952 51 Z"/>
</clipPath>
<clipPath clipPathUnits="userSpaceOnUse" id="clipPath12">
<path d="M962 104 L1100 104 L1100 120 L962 120 L962 104 Z"/>
</clipPath>
<clipPath clipPathUnits="userSpaceOnUse" id="clipPath13">
<path d="M763 181 L895 181 L895 234 L763 234 L763 181 Z"/>
</clipPath>
<clipPath clipPathUnits="userSpaceOnUse" id="clipPath14">
<path d="M773 234 L885 234 L885 250 L773 250 L773 234 Z"/>
</clipPath>
<clipPath clipPathUnits="userSpaceOnUse" id="clipPath15">
<path d="M1232 186 L1365 186 L1365 239 L1232 239 L1232 186 Z"/>
</clipPath>
<clipPath clipPathUnits="userSpaceOnUse" id="clipPath16">
<path d="M1242 239 L1356 239 L1356 255 L1242 255 L1242 239 Z"/>
</clipPath>
<clipPath clipPathUnits="userSpaceOnUse" id="clipPath17">
<path d="M1167 56 L1425 56 L1425 109 L1167 109 L1167 56 Z"/>
</clipPath>
<clipPath clipPathUnits="userSpaceOnUse" id="clipPath18">
<path d="M1177 109 L1415 109 L1415 125 L1177 125 L1177 109 Z"/>
</clipPath>
<clipPath clipPathUnits="userSpaceOnUse" id="clipPath19">
<path d="M1212 333 L1270 333 L1270 426 L1212 426 L1212 333 Z"/>
</clipPath>
<clipPath clipPathUnits="userSpaceOnUse" id="clipPath20">
<path d="M1231 426 L1250 426 L1250 442 L1231 442 L1231 426 Z"/>
</clipPath>
<clipPath clipPathUnits="userSpaceOnUse" id="clipPath21">
<path d="M523 181 L644 181 L644 234 L523 234 L523 181 Z"/>
</clipPath>
<clipPath clipPathUnits="userSpaceOnUse" id="clipPath22">
<path d="M533 234 L634 234 L634 250 L533 250 L533 234 Z"/>
</clipPath>
<clipPath clipPathUnits="userSpaceOnUse" id="clipPath23">
<path d="M139 151 L263 151 L263 204 L139 204 L139 151 Z"/>
</clipPath>
<clipPath clipPathUnits="userSpaceOnUse" id="clipPath24">
<path d="M149 204 L253 204 L253 220 L149 220 L149 204 Z"/>
</clipPath>
<clipPath clipPathUnits="userSpaceOnUse" id="clipPath25">
<path d="M294 96 L469 96 L469 149 L294 149 L294 96 Z"/>
</clipPath>
<clipPath clipPathUnits="userSpaceOnUse" id="clipPath26">
<path d="M304 149 L459 149 L459 165 L304 165 L304 149 Z"/>
</clipPath>
<clipPath clipPathUnits="userSpaceOnUse" id="clipPath27">
<path d="M119 266 L230 266 L230 319 L119 319 L119 266 Z"/>
</clipPath>
<clipPath clipPathUnits="userSpaceOnUse" id="clipPath28">
<path d="M129 319 L220 319 L220 335 L129 335 L129 319 Z"/>
</clipPath>
<clipPath clipPathUnits="userSpaceOnUse" id="clipPath29">
<path d="M79 386 L279 386 L279 438 L79 438 L79 386 Z"/>
</clipPath>
<clipPath clipPathUnits="userSpaceOnUse" id="clipPath30">
<path d="M89 438 L269 438 L269 454 L89 454 L89 438 Z"/>
</clipPath>
<clipPath clipPathUnits="userSpaceOnUse" id="clipPath31">
<path d="M583 351 L722 351 L722 404 L583 404 L583 351 Z"/>
</clipPath>
<clipPath clipPathUnits="userSpaceOnUse" id="clipPath32">
<path d="M593 404 L712 404 L712 420 L593 420 L593 404 Z"/>
</clipPath>
<clipPath clipPathUnits="userSpaceOnUse" id="clipPath33">
<path d="M344 336 L415 336 L415 429 L344 429 L344 336 Z"/>
</clipPath>
<clipPath clipPathUnits="userSpaceOnUse" id="clipPath34">
<path d="M354 429 L405 429 L405 445 L354 445 L354 429 Z"/>
</clipPath>
<clipPath clipPathUnits="userSpaceOnUse" id="clipPath35">
<path d="M382 1209 L531 1209 L531 1262 L382 1262 L382 1209 Z"/>
</clipPath>
<clipPath clipPathUnits="userSpaceOnUse" id="clipPath36">
<path d="M392 1262 L521 1262 L521 1278 L392 1278 L392 1262 Z"/>
</clipPath>
<clipPath clipPathUnits="userSpaceOnUse" id="clipPath37">
<path d="M244 1209 L345 1209 L345 1262 L244 1262 L244 1209 Z"/>
</clipPath>
<clipPath clipPathUnits="userSpaceOnUse" id="clipPath38">
<path d="M254 1262 L335 1262 L335 1278 L254 1278 L254 1262 Z"/>
</clipPath>
<clipPath clipPathUnits="userSpaceOnUse" id="clipPath39">
<path d="M1880 560 L1973 560 L1973 613 L1880 613 L1880 560 Z"/>
</clipPath>
<clipPath clipPathUnits="userSpaceOnUse" id="clipPath40">
<path d="M1890 613 L1963 613 L1963 629 L1890 629 L1890 613 Z"/>
</clipPath>
<clipPath clipPathUnits="userSpaceOnUse" id="clipPath41">
<path d="M1623 563 L1780 563 L1780 616 L1623 616 L1623 563 Z"/>
</clipPath>
<clipPath clipPathUnits="userSpaceOnUse" id="clipPath42">
<path d="M1633 616 L1770 616 L1770 631 L1633 631 L1633 616 Z"/>
</clipPath>
<clipPath clipPathUnits="userSpaceOnUse" id="clipPath43">
<path d="M339 989 L420 989 L420 1082 L339 1082 L339 989 Z"/>
</clipPath>
<clipPath clipPathUnits="userSpaceOnUse" id="clipPath44">
<path d="M349 1082 L411 1082 L411 1098 L349 1098 L349 1082 Z"/>
</clipPath>
<clipPath clipPathUnits="userSpaceOnUse" id="clipPath45">
<path d="M1780 705 L1854 705 L1854 798 L1780 798 L1780 705 Z"/>
</clipPath>
<clipPath clipPathUnits="userSpaceOnUse" id="clipPath46">
<path d="M1790 798 L1844 798 L1844 814 L1790 814 L1790 798 Z"/>
</clipPath>
<clipPath clipPathUnits="userSpaceOnUse" id="clipPath47">
<path d="M1232 1139 L1402 1139 L1402 1192 L1232 1192 L1232 1139 Z"/>
</clipPath>
<clipPath clipPathUnits="userSpaceOnUse" id="clipPath48">
<path d="M1242 1192 L1393 1192 L1393 1208 L1242 1208 L1242 1192 Z"/>
</clipPath>
<clipPath clipPathUnits="userSpaceOnUse" id="clipPath49">
<path d="M1172 1254 L1284 1254 L1284 1307 L1172 1307 L1172 1254 Z"/>
</clipPath>
<clipPath clipPathUnits="userSpaceOnUse" id="clipPath50">
<path d="M1182 1307 L1274 1307 L1274 1323 L1182 1323 L1182 1307 Z"/>
</clipPath>
<clipPath clipPathUnits="userSpaceOnUse" id="clipPath51">
<path d="M1341 1254 L1448 1254 L1448 1307 L1341 1307 L1341 1254 Z"/>
</clipPath>
<clipPath clipPathUnits="userSpaceOnUse" id="clipPath52">
<path d="M1351 1307 L1438 1307 L1438 1323 L1351 1323 L1351 1307 Z"/>
</clipPath>
<clipPath clipPathUnits="userSpaceOnUse" id="clipPath53">
<path d="M1436 1139 L1527 1139 L1527 1192 L1436 1192 L1436 1139 Z"/>
</clipPath>
<clipPath clipPathUnits="userSpaceOnUse" id="clipPath54">
<path d="M1446 1192 L1517 1192 L1517 1208 L1446 1208 L1446 1192 Z"/>
</clipPath>
<clipPath clipPathUnits="userSpaceOnUse" id="clipPath55">
<path d="M1062 1134 L1188 1134 L1188 1187 L1062 1187 L1062 1134 Z"/>
</clipPath>
<clipPath clipPathUnits="userSpaceOnUse" id="clipPath56">
<path d="M1072 1187 L1178 1187 L1178 1203 L1072 1203 L1072 1187 Z"/>
</clipPath>
<clipPath clipPathUnits="userSpaceOnUse" id="clipPath57">
<path d="M1271 999 L1367 999 L1367 1092 L1271 1092 L1271 999 Z"/>
</clipPath>
<clipPath clipPathUnits="userSpaceOnUse" id="clipPath58">
<path d="M1281 1092 L1357 1092 L1357 1108 L1281 1108 L1281 1092 Z"/>
</clipPath>
<clipPath clipPathUnits="userSpaceOnUse" id="clipPath59">
<path d="M-1 -1 L1983 -1 L1983 1335 L-1 1335 L-1 -1 Z"/>
</clipPath>
<clipPath clipPathUnits="userSpaceOnUse" id="clipPath60">
<path d="M1217 760 L1270 760 L1270 776 L1217 776 L1217 760 Z"/>
</clipPath>
<clipPath clipPathUnits="userSpaceOnUse" id="clipPath61">
<path d="M1156 773 L1170 773 L1170 787 L1156 787 L1156 773 Z"/>
</clipPath>
<clipPath clipPathUnits="userSpaceOnUse" id="clipPath62">
<path d="M980 129 L1030 129 L1030 145 L980 145 L980 129 Z"/>
</clipPath>
<clipPath clipPathUnits="userSpaceOnUse" id="clipPath63">
<path d="M1024 173 L1038 173 L1038 187 L1024 187 L1024 173 Z"/>
</clipPath>
<clipPath clipPathUnits="userSpaceOnUse" id="clipPath64">
<path d="M908 193 L958 193 L958 209 L908 209 L908 193 Z"/>
</clipPath>
<clipPath clipPathUnits="userSpaceOnUse" id="clipPath65">
<path d="M981 208 L995 208 L995 222 L981 222 L981 208 Z"/>
</clipPath>
<clipPath clipPathUnits="userSpaceOnUse" id="clipPath66">
<path d="M1299 121 L1352 121 L1352 137 L1299 137 L1299 121 Z"/>
</clipPath>
<clipPath clipPathUnits="userSpaceOnUse" id="clipPath67">
<path d="M1292 175 L1306 175 L1306 189 L1292 189 L1292 175 Z"/>
</clipPath>
<clipPath clipPathUnits="userSpaceOnUse" id="clipPath68">
<path d="M674 182 L727 182 L727 198 L674 198 L674 182 Z"/>
</clipPath>
<clipPath clipPathUnits="userSpaceOnUse" id="clipPath69">
<path d="M628 210 L642 210 L642 224 L628 224 L628 210 Z"/>
</clipPath>
<clipPath clipPathUnits="userSpaceOnUse" id="clipPath70">
<path d="M168 341 L221 341 L221 357 L168 357 L168 341 Z"/>
</clipPath>
<clipPath clipPathUnits="userSpaceOnUse" id="clipPath71">
<path d="M161 315 L175 315 L175 329 L161 329 L161 315 Z"/>
</clipPath>
<clipPath clipPathUnits="userSpaceOnUse" id="clipPath72">
<path d="M1292 1233 L1342 1233 L1342 1249 L1292 1249 L1292 1233 Z"/>
</clipPath>
<clipPath clipPathUnits="userSpaceOnUse" id="clipPath73">
<path d="M1280 1185 L1294 1185 L1294 1200 L1280 1200 L1280 1185 Z"/>
</clipPath>
<clipPath clipPathUnits="userSpaceOnUse" id="clipPath74">
<path d="M1309 1221 L1359 1221 L1359 1237 L1309 1237 L1309 1221 Z"/>
</clipPath>
<clipPath clipPathUnits="userSpaceOnUse" id="clipPath75">
<path d="M1322 1188 L1337 1188 L1337 1203 L1322 1203 L1322 1188 Z"/>
</clipPath>
</defs>
<g font-size="11" fill="rgb(225,235,245)" font-family="'Segoe UI'" stroke-linejoin="round" stroke="rgb(225,235,245)" stroke-width="0" stroke-miterlimit="0">
<ellipse clip-path="url(#clipPath1)" rx="41.5" cx="1119.5" ry="20.5" cy="770.5" stroke="none"/>
</g>
<g font-size="11" stroke-linecap="butt" fill="rgb(109,163,217)" font-family="'Segoe UI'" stroke="rgb(109,163,217)" stroke-width="1.0827">
<ellipse clip-path="url(#clipPath1)" fill="none" rx="41.5" cx="1119.5" ry="20.5" cy="770.5"/>
<text x="1105" y="811" clip-path="url(#clipPath2)" fill="black" stroke="none" font-weight="bold" xml:space="preserve">Login</text>
<ellipse clip-path="url(#clipPath3)" fill="rgb(225,235,245)" rx="43" cx="1371" ry="21.5" cy="775.5" stroke="none"/>
<ellipse clip-path="url(#clipPath3)" fill="none" rx="43" cx="1371" ry="21.5" cy="775.5"/>
<text x="1337" y="816" clip-path="url(#clipPath4)" fill="black" stroke="none" font-weight="bold" xml:space="preserve">Authenticate</text>
<ellipse clip-path="url(#clipPath5)" fill="rgb(225,235,245)" rx="49.5" cx="740.5" ry="24.5" cy="750.5" stroke="none"/>
<ellipse clip-path="url(#clipPath5)" fill="none" rx="49.5" cx="740.5" ry="24.5" cy="750.5"/>
<text x="694" y="791" clip-path="url(#clipPath6)" fill="black" stroke="none" font-weight="bold" xml:space="preserve">Change Password</text>
<ellipse clip-path="url(#clipPath7)" fill="rgb(225,235,245)" rx="49.5" cx="1495.5" ry="24.5" cy="366.5" stroke="none"/>
<ellipse clip-path="url(#clipPath7)" fill="none" rx="49.5" cx="1495.5" ry="24.5" cy="366.5"/>
<text x="1437" y="407" clip-path="url(#clipPath8)" fill="black" stroke="none" font-weight="bold" xml:space="preserve">Check for Applications</text>
<ellipse clip-path="url(#clipPath9)" fill="rgb(225,235,245)" rx="41" cx="1030" ry="20.5" cy="204.5" stroke="none"/>
<ellipse clip-path="url(#clipPath9)" fill="none" rx="41" cx="1030" ry="20.5" cy="204.5"/>
<text x="1003" y="245" clip-path="url(#clipPath10)" fill="black" stroke="none" font-weight="bold" xml:space="preserve">Send Mail</text>
<ellipse clip-path="url(#clipPath11)" fill="rgb(225,235,245)" rx="49.5" cx="1030.5" ry="24.5" cy="77.5" stroke="none"/>
<ellipse clip-path="url(#clipPath11)" fill="none" rx="49.5" cx="1030.5" ry="24.5" cy="77.5"/>
<text x="963" y="117" clip-path="url(#clipPath12)" fill="black" stroke="none" font-weight="bold" xml:space="preserve">Send Offer/Rejection Mail</text>
<ellipse clip-path="url(#clipPath13)" fill="rgb(225,235,245)" rx="49" cx="828" ry="24.5" cy="206.5" stroke="none"/>
<ellipse clip-path="url(#clipPath13)" fill="none" rx="49.5" cx="828.5" ry="24.5" cy="206.5"/>
<text x="774" y="247" clip-path="url(#clipPath14)" fill="black" stroke="none" font-weight="bold" xml:space="preserve">Send Interview Dates</text>
<ellipse clip-path="url(#clipPath15)" fill="rgb(225,235,245)" rx="49" cx="1298" ry="24.5" cy="211.5" stroke="none"/>
<ellipse clip-path="url(#clipPath15)" fill="none" rx="49.5" cx="1298.5" ry="24.5" cy="211.5"/>
<text x="1243" y="252" clip-path="url(#clipPath16)" fill="black" stroke="none" font-weight="bold" xml:space="preserve">Shortlist Applications</text>
<ellipse clip-path="url(#clipPath17)" fill="rgb(225,235,245)" rx="49.5" cx="1295.5" ry="24.5" cy="82.5" stroke="none"/>
<ellipse clip-path="url(#clipPath17)" fill="none" rx="49.5" cx="1295.5" ry="24.5" cy="82.5"/>
<text x="1178" y="122" clip-path="url(#clipPath18)" fill="black" stroke="none" font-weight="bold" xml:space="preserve">Forward Shortlisted Applications to Manager</text>
<circle clip-path="url(#clipPath19)" fill="rgb(170,206,242)" r="7" cx="1240" cy="341" stroke="none"/>
<path fill="rgb(170,206,242)" d="M1231.1055 352.0252 L1250.1166 352.0252 L1250.1165 352.0252 C1254.6044 352.0252 1258.2424 355.6633 1258.2424 360.1512 C1258.2424 360.1512 1258.2424 360.1512 1258.2424 360.1512 L1258.2426 383.0551 L1258.2424 383.074 C1258.2424 384.5247 1257.0664 385.7007 1255.6157 385.7007 C1254.165 385.7008 1252.989 384.5247 1252.9889 383.074 L1252.989 365.4425 L1252.9889 365.4614 C1252.9889 364.5952 1252.2866 363.8929 1251.4204 363.8929 C1250.5542 363.8929 1249.8519 364.5952 1249.8519 365.4614 C1249.8519 365.4614 1249.8519 365.4614 1249.8519 365.4614 L1249.8519 420.0189 L1249.8519 420.0189 C1249.8519 422.2523 1248.0414 424.063 1245.8079 424.063 C1243.5743 424.063 1241.7638 422.2523 1241.7637 420.0189 L1241.7638 388.3087 L1241.7637 388.3086 C1241.7637 387.6824 1241.2561 387.1748 1240.6299 387.1748 C1240.0037 387.1748 1239.496 387.6824 1239.4961 388.3086 C1239.4961 388.3086 1239.4961 388.3087 1239.4961 388.3087 L1239.4961 420.0189 L1239.496 420.0189 C1239.496 422.2523 1237.6854 424.063 1235.452 424.063 C1233.2184 424.063 1231.4078 422.2523 1231.4078 420.0189 L1231.4078 365.4425 L1231.4078 365.4614 C1231.4078 364.5952 1230.7056 363.8929 1229.8394 363.8929 C1228.9731 363.8929 1228.2708 364.5952 1228.2709 365.4614 C1228.2709 365.4614 1228.2709 365.4614 1228.2709 365.4614 L1228.2709 383.0551 L1228.2708 383.074 C1228.2708 384.5247 1227.0947 385.7007 1225.644 385.7007 C1224.1934 385.7008 1223.0173 384.5247 1223.0172 383.074 L1223.0173 360.1512 L1223.0172 360.1512 C1223.0172 355.6633 1226.6554 352.0252 1231.1432 352.0252 Z" clip-path="url(#clipPath19)" fill-rule="evenodd" stroke="none"/>
<circle clip-path="url(#clipPath19)" fill="none" r="7" cx="1240" cy="341" stroke="rgb(170,206,242)" stroke-width="1"/>
<line clip-path="url(#clipPath19)" fill="none" x1="1231" x2="1250" y1="352" y2="352" stroke="rgb(170,206,242)" stroke-width="1"/>
<path fill="none" d="M1249 352 A8 8 0 0 1 1257 360" stroke-width="1" clip-path="url(#clipPath19)" stroke="rgb(170,206,242)"/>
<line clip-path="url(#clipPath19)" fill="none" x1="1258" x2="1258" y1="360" y2="383" stroke="rgb(170,206,242)" stroke-width="1"/>
<path fill="none" d="M1257 382.5 A2.5 2.5 0 0 1 1252 382.5" stroke-width="1" clip-path="url(#clipPath19)" stroke="rgb(170,206,242)"/>
<line clip-path="url(#clipPath19)" fill="none" x1="1252" x2="1252" y1="383" y2="365" stroke="rgb(170,206,242)" stroke-width="1"/>
<path fill="none" d="M1251 365 A1 2 0 0 0 1249 365" stroke-width="1" clip-path="url(#clipPath19)" stroke="rgb(170,206,242)"/>
<line clip-path="url(#clipPath19)" fill="none" x1="1249" x2="1249" y1="365" y2="420" stroke="rgb(170,206,242)" stroke-width="1"/>
<path fill="none" d="M1248 419.5 A3.5 4.5 0 0 1 1241 419.5" stroke-width="1" clip-path="url(#clipPath19)" stroke="rgb(170,206,242)"/>
<line clip-path="url(#clipPath19)" fill="none" x1="1241" x2="1241" y1="420" y2="388" stroke="rgb(170,206,242)" stroke-width="1"/>
<path fill="none" d="M1240 388 A0.5 1 0 0 0 1239 388" stroke-width="1" clip-path="url(#clipPath19)" stroke="rgb(170,206,242)"/>
<line clip-path="url(#clipPath19)" fill="none" x1="1239" x2="1239" y1="388" y2="420" stroke="rgb(170,206,242)" stroke-width="1"/>
<path fill="none" d="M1238 419.5 A3.5 4.5 0 0 1 1231 419.5" stroke-width="1" clip-path="url(#clipPath19)" stroke="rgb(170,206,242)"/>
<line clip-path="url(#clipPath19)" fill="none" x1="1231" x2="1231" y1="420" y2="365" stroke="rgb(170,206,242)" stroke-width="1"/>
<path fill="none" d="M1230 365 A1 2 0 0 0 1228 365" stroke-width="1" clip-path="url(#clipPath19)" stroke="rgb(170,206,242)"/>
<line clip-path="url(#clipPath19)" fill="none" x1="1228" x2="1228" y1="365" y2="383" stroke="rgb(170,206,242)" stroke-width="1"/>
<path fill="none" d="M1227 382.5 A2 2.5 0 0 1 1223 382.5" stroke-width="1" clip-path="url(#clipPath19)" stroke="rgb(170,206,242)"/>
<line clip-path="url(#clipPath19)" fill="none" x1="1223" x2="1223" y1="383" y2="360" stroke="rgb(170,206,242)" stroke-width="1"/>
<path fill="none" d="M1223 360 A7.5 8 0 0 1 1230.5 352" stroke-width="1" clip-path="url(#clipPath19)" stroke="rgb(170,206,242)"/>
</g>
<g font-size="11" font-family="'Segoe UI'" font-weight="bold" stroke-linecap="butt">
<text xml:space="preserve" x="1232" y="439" clip-path="url(#clipPath20)" stroke="none">HR</text>
<ellipse clip-path="url(#clipPath21)" fill="rgb(225,235,245)" rx="49.5" cx="583.5" ry="24.5" cy="206.5" stroke="none"/>
</g>
<g font-size="11" stroke-linecap="butt" fill="rgb(109,163,217)" font-family="'Segoe UI'" stroke="rgb(109,163,217)" stroke-width="1.0827">
<ellipse clip-path="url(#clipPath21)" fill="none" rx="49.5" cx="583.5" ry="24.5" cy="206.5"/>
<text x="534" y="247" clip-path="url(#clipPath22)" fill="black" stroke="none" font-weight="bold" xml:space="preserve">Schedule Interview</text>
<ellipse clip-path="url(#clipPath23)" fill="rgb(225,235,245)" rx="49.5" cx="200.5" ry="24" cy="177" stroke="none"/>
<ellipse clip-path="url(#clipPath23)" fill="none" rx="49.5" cx="200.5" ry="24.5" cy="177.5"/>
<text x="150" y="217" clip-path="url(#clipPath24)" fill="black" stroke="none" font-weight="bold" xml:space="preserve">Assign Interviewers</text>
<ellipse clip-path="url(#clipPath25)" fill="rgb(225,235,245)" rx="49.5" cx="380.5" ry="24.5" cy="122.5" stroke="none"/>
<ellipse clip-path="url(#clipPath25)" fill="none" rx="49.5" cx="380.5" ry="24.5" cy="122.5"/>
<text x="305" y="162" clip-path="url(#clipPath26)" fill="black" stroke="none" font-weight="bold" xml:space="preserve">View Shortlisted Applications</text>
<ellipse clip-path="url(#clipPath27)" fill="rgb(225,235,245)" rx="49" cx="174" ry="24.5" cy="291.5" stroke="none"/>
<ellipse clip-path="url(#clipPath27)" fill="none" rx="49" cx="174" ry="24.5" cy="291.5"/>
<text x="130" y="332" clip-path="url(#clipPath28)" fill="black" stroke="none" font-weight="bold" xml:space="preserve">Select Applicants</text>
<ellipse clip-path="url(#clipPath29)" fill="rgb(225,235,245)" rx="49.5" cx="178.5" ry="24.5" cy="411.5" stroke="none"/>
<ellipse clip-path="url(#clipPath29)" fill="none" rx="49.5" cx="178.5" ry="24.5" cy="411.5"/>
<text x="90" y="451" clip-path="url(#clipPath30)" fill="black" stroke="none" font-weight="bold" xml:space="preserve">Forward selected applicants to HR</text>
<ellipse clip-path="url(#clipPath31)" fill="rgb(225,235,245)" rx="49.5" cx="651.5" ry="24.5" cy="376.5" stroke="none"/>
<ellipse clip-path="url(#clipPath31)" fill="none" rx="49.5" cx="651.5" ry="24.5" cy="376.5"/>
<text x="594" y="417" clip-path="url(#clipPath32)" fill="black" stroke="none" font-weight="bold" xml:space="preserve">View Interview Results</text>
<circle clip-path="url(#clipPath33)" fill="rgb(170,206,242)" r="7" cx="379" cy="344" stroke="none"/>
<path fill="rgb(170,206,242)" d="M370.3559 355.0866 L389.3669 355.0866 L389.3669 355.0866 C393.8547 355.0866 397.4929 358.7247 397.4929 363.2126 C397.4929 363.2126 397.4929 363.2126 397.4929 363.2126 L397.4929 386.1165 L397.4929 386.1354 C397.4929 387.5861 396.3168 388.7622 394.8661 388.7622 C393.4154 388.7622 392.2394 387.5862 392.2393 386.1354 L392.2394 368.5039 L392.2393 368.5228 C392.2393 367.6566 391.5371 366.9543 390.6708 366.9543 C389.8046 366.9543 389.1024 367.6566 389.1024 368.5228 C389.1024 368.5228 389.1024 368.5228 389.1024 368.5228 L389.1024 423.0803 L389.1024 423.0803 C389.1024 425.3138 387.2917 427.1244 385.0583 427.1244 C382.8248 427.1244 381.0142 425.3138 381.0142 423.0803 L381.0142 391.3701 L381.0142 391.3701 C381.0142 390.7438 380.5065 390.2362 379.8803 390.2362 C379.2541 390.2362 378.7464 390.7438 378.7465 391.3701 C378.7465 391.3701 378.7465 391.3701 378.7465 391.3701 L378.7465 423.0803 L378.7464 423.0803 C378.7464 425.3138 376.9359 427.1244 374.7024 427.1244 C372.4689 427.1244 370.6583 425.3138 370.6583 423.0803 L370.6583 368.5039 L370.6583 368.5228 C370.6583 367.6566 369.956 366.9543 369.0898 366.9543 C368.2235 366.9543 367.5212 367.6566 367.5213 368.5228 C367.5213 368.5228 367.5213 368.5228 367.5213 368.5228 L367.5213 386.1165 L367.5212 386.1354 C367.5212 387.5861 366.3452 388.7622 364.8945 388.7622 C363.4438 388.7622 362.2677 387.5862 362.2677 386.1354 L362.2677 363.2126 L362.2677 363.2126 C362.2677 358.7247 365.9058 355.0866 370.3937 355.0866 Z" clip-path="url(#clipPath33)" fill-rule="evenodd" stroke="none"/>
<circle clip-path="url(#clipPath33)" fill="none" r="7" cx="379" cy="344" stroke="rgb(170,206,242)" stroke-width="1"/>
<line clip-path="url(#clipPath33)" fill="none" x1="370" x2="389" y1="355" y2="355" stroke="rgb(170,206,242)" stroke-width="1"/>
<path fill="none" d="M388.5 355 A7.5 8 0 0 1 396 363" stroke-width="1" clip-path="url(#clipPath33)" stroke="rgb(170,206,242)"/>
<line clip-path="url(#clipPath33)" fill="none" x1="397" x2="397" y1="363" y2="386" stroke="rgb(170,206,242)" stroke-width="1"/>
<path fill="none" d="M396 385.5 A2 2.5 0 0 1 392 385.5" stroke-width="1" clip-path="url(#clipPath33)" stroke="rgb(170,206,242)"/>
<line clip-path="url(#clipPath33)" fill="none" x1="392" x2="392" y1="386" y2="368" stroke="rgb(170,206,242)" stroke-width="1"/>
<path fill="none" d="M391 368 A1 2 0 0 0 389 368" stroke-width="1" clip-path="url(#clipPath33)" stroke="rgb(170,206,242)"/>
<line clip-path="url(#clipPath33)" fill="none" x1="389" x2="389" y1="368" y2="423" stroke="rgb(170,206,242)" stroke-width="1"/>
<path fill="none" d="M388 423 A3.5 4 0 0 1 381 423" stroke-width="1" clip-path="url(#clipPath33)" stroke="rgb(170,206,242)"/>
<line clip-path="url(#clipPath33)" fill="none" x1="381" x2="381" y1="423" y2="391" stroke="rgb(170,206,242)" stroke-width="1"/>
<path fill="none" d="M380 391 A1 1 0 0 0 378 391" stroke-width="1" clip-path="url(#clipPath33)" stroke="rgb(170,206,242)"/>
<line clip-path="url(#clipPath33)" fill="none" x1="378" x2="378" y1="391" y2="423" stroke="rgb(170,206,242)" stroke-width="1"/>
<path fill="none" d="M377 423 A3.5 4 0 0 1 370 423" stroke-width="1" clip-path="url(#clipPath33)" stroke="rgb(170,206,242)"/>
<line clip-path="url(#clipPath33)" fill="none" x1="370" x2="370" y1="423" y2="368" stroke="rgb(170,206,242)" stroke-width="1"/>
<path fill="none" d="M369 368 A1 2 0 0 0 367 368" stroke-width="1" clip-path="url(#clipPath33)" stroke="rgb(170,206,242)"/>
<line clip-path="url(#clipPath33)" fill="none" x1="367" x2="367" y1="368" y2="386" stroke="rgb(170,206,242)" stroke-width="1"/>
<path fill="none" d="M366 385.5 A2 2.5 0 0 1 362 385.5" stroke-width="1" clip-path="url(#clipPath33)" stroke="rgb(170,206,242)"/>
<line clip-path="url(#clipPath33)" fill="none" x1="362" x2="362" y1="386" y2="363" stroke="rgb(170,206,242)" stroke-width="1"/>
<path fill="none" d="M362 363 A7.5 8 0 0 1 369.5 355" stroke-width="1" clip-path="url(#clipPath33)" stroke="rgb(170,206,242)"/>
</g>
<g font-size="11" font-family="'Segoe UI'" font-weight="bold" stroke-linecap="butt">
<text xml:space="preserve" x="355" y="442" clip-path="url(#clipPath34)" stroke="none">Manager</text>
<ellipse clip-path="url(#clipPath35)" fill="rgb(225,235,245)" rx="49.5" cx="455.5" ry="24.5" cy="1234.5" stroke="none"/>
</g>
<g font-size="11" stroke-linecap="butt" fill="rgb(109,163,217)" font-family="'Segoe UI'" stroke="rgb(109,163,217)" stroke-width="1.0827">
<ellipse clip-path="url(#clipPath35)" fill="none" rx="49.5" cx="455.5" ry="24.5" cy="1234.5"/>
<text x="393" y="1275" clip-path="url(#clipPath36)" fill="black" stroke="none" font-weight="bold" xml:space="preserve">View Interview Schedule</text>
<ellipse clip-path="url(#clipPath37)" fill="rgb(225,235,245)" rx="48.5" cx="293.5" ry="24" cy="1235" stroke="none"/>
<ellipse clip-path="url(#clipPath37)" fill="none" rx="48.5" cx="293.5" ry="24" cy="1235"/>
<text x="255" y="1275" clip-path="url(#clipPath38)" fill="black" stroke="none" font-weight="bold" xml:space="preserve">Update Results</text>
<ellipse clip-path="url(#clipPath39)" fill="rgb(225,235,245)" rx="44.5" cx="1926.5" ry="22" cy="586" stroke="none"/>
<ellipse clip-path="url(#clipPath39)" fill="none" rx="44.5" cx="1926.5" ry="22" cy="586"/>
<text x="1891" y="626" clip-path="url(#clipPath40)" fill="black" stroke="none" font-weight="bold" xml:space="preserve">Send Resume</text>
<ellipse clip-path="url(#clipPath41)" fill="rgb(225,235,245)" rx="49.5" cx="1700.5" ry="24.5" cy="588.5" stroke="none"/>
<ellipse clip-path="url(#clipPath41)" fill="none" rx="49.5" cx="1700.5" ry="24.5" cy="588.5"/>
<text x="1634" y="629" clip-path="url(#clipPath42)" fill="black" stroke="none" font-weight="bold" xml:space="preserve">Accept/Reject Offer Letter</text>
<circle clip-path="url(#clipPath43)" fill="rgb(170,206,242)" r="7" cx="379" cy="997" stroke="none"/>
<path fill="rgb(170,206,242)" d="M370.0157 1008.6425 L389.0268 1008.6425 L389.0268 1008.6425 C393.5146 1008.6425 397.1527 1012.2806 397.1527 1016.7684 C397.1527 1016.7684 397.1527 1016.7685 397.1527 1016.7685 L397.1528 1039.6724 L397.1527 1039.6913 C397.1527 1041.1421 395.9767 1042.3181 394.526 1042.3181 C393.0753 1042.3181 391.8992 1041.1421 391.8992 1039.6914 L391.8992 1022.0598 L391.8992 1022.0787 C391.8992 1021.2125 391.1969 1020.5102 390.3307 1020.5103 C389.4644 1020.5103 388.7622 1021.2125 388.7622 1022.0787 C388.7622 1022.0787 388.7622 1022.0787 388.7622 1022.0787 L388.7622 1076.6362 L388.7622 1076.6361 C388.7622 1078.8696 386.9516 1080.6803 384.7181 1080.6803 C382.4846 1080.6803 380.674 1078.8696 380.674 1076.6362 L380.674 1044.926 L380.674 1044.9259 C380.674 1044.2997 380.1664 1043.792 379.5401 1043.792 C378.9139 1043.7921 378.4063 1044.2997 378.4063 1044.9259 C378.4063 1044.9259 378.4063 1044.926 378.4063 1044.926 L378.4063 1076.6362 L378.4063 1076.6361 C378.4063 1078.8696 376.5957 1080.6803 374.3622 1080.6803 C372.1287 1080.6803 370.3181 1078.8696 370.3181 1076.6362 L370.3181 1022.0598 L370.3181 1022.0787 C370.3181 1021.2125 369.6158 1020.5102 368.7496 1020.5103 C367.8833 1020.5103 367.1811 1021.2125 367.1811 1022.0787 C367.1811 1022.0787 367.1811 1022.0787 367.1811 1022.0787 L367.1811 1039.6724 L367.1811 1039.6913 C367.1811 1041.1421 366.005 1042.3181 364.5543 1042.3181 C363.1036 1042.3181 361.9276 1041.1421 361.9276 1039.6914 L361.9276 1016.7685 L361.9276 1016.7685 C361.9276 1012.2806 365.5657 1008.6425 370.0535 1008.6425 Z" clip-path="url(#clipPath43)" fill-rule="evenodd" stroke="none"/>
<circle clip-path="url(#clipPath43)" fill="none" r="7" cx="379" cy="997" stroke="rgb(170,206,242)" stroke-width="1"/>
<line clip-path="url(#clipPath43)" fill="none" x1="370" x2="389" y1="1008" y2="1008" stroke="rgb(170,206,242)" stroke-width="1"/>
<path fill="none" d="M388 1008 A8 8 0 0 1 396 1016" stroke-width="1" clip-path="url(#clipPath43)" stroke="rgb(170,206,242)"/>
<line clip-path="url(#clipPath43)" fill="none" x1="397" x2="397" y1="1016" y2="1039" stroke="rgb(170,206,242)" stroke-width="1"/>
<path fill="none" d="M396 1039.5 A2.5 2.5 0 0 1 391 1039.5" stroke-width="1" clip-path="url(#clipPath43)" stroke="rgb(170,206,242)"/>
<line clip-path="url(#clipPath43)" fill="none" x1="391" x2="391" y1="1039" y2="1022" stroke="rgb(170,206,242)" stroke-width="1"/>
<path fill="none" d="M390 1021.5 A1 1.5 0 0 0 388 1021.5" stroke-width="1" clip-path="url(#clipPath43)" stroke="rgb(170,206,242)"/>
<line clip-path="url(#clipPath43)" fill="none" x1="388" x2="388" y1="1022" y2="1076" stroke="rgb(170,206,242)" stroke-width="1"/>
<path fill="none" d="M387 1076 A3.5 4 0 0 1 380 1076" stroke-width="1" clip-path="url(#clipPath43)" stroke="rgb(170,206,242)"/>
<line clip-path="url(#clipPath43)" fill="none" x1="380" x2="380" y1="1076" y2="1044" stroke="rgb(170,206,242)" stroke-width="1"/>
<path fill="none" d="M379 1044.5 A0.5 1.5 0 0 0 378 1044.5" stroke-width="1" clip-path="url(#clipPath43)" stroke="rgb(170,206,242)"/>
<line clip-path="url(#clipPath43)" fill="none" x1="378" x2="378" y1="1044" y2="1076" stroke="rgb(170,206,242)" stroke-width="1"/>
<path fill="none" d="M377 1076 A3.5 4 0 0 1 370 1076" stroke-width="1" clip-path="url(#clipPath43)" stroke="rgb(170,206,242)"/>
<line clip-path="url(#clipPath43)" fill="none" x1="370" x2="370" y1="1076" y2="1022" stroke="rgb(170,206,242)" stroke-width="1"/>
<path fill="none" d="M369 1021.5 A1 1.5 0 0 0 367 1021.5" stroke-width="1" clip-path="url(#clipPath43)" stroke="rgb(170,206,242)"/>
<line clip-path="url(#clipPath43)" fill="none" x1="367" x2="367" y1="1022" y2="1039" stroke="rgb(170,206,242)" stroke-width="1"/>
<path fill="none" d="M366 1039.5 A2.5 2.5 0 0 1 361 1039.5" stroke-width="1" clip-path="url(#clipPath43)" stroke="rgb(170,206,242)"/>
<line clip-path="url(#clipPath43)" fill="none" x1="361" x2="361" y1="1039" y2="1016" stroke="rgb(170,206,242)" stroke-width="1"/>
<path fill="none" d="M361 1016 A8 8 0 0 1 369 1008" stroke-width="1" clip-path="url(#clipPath43)" stroke="rgb(170,206,242)"/>
</g>
<g font-size="11" font-family="'Segoe UI'" font-weight="bold" stroke-linecap="butt">
<text xml:space="preserve" x="350" y="1095" clip-path="url(#clipPath44)" stroke="none">Interviewer</text>
<circle clip-path="url(#clipPath45)" fill="rgb(170,206,242)" r="7" cx="1816" cy="713" stroke="none"/>
<path fill="rgb(170,206,242)" d="M1807.4457 724.4598 L1826.4567 724.4598 L1826.4565 724.4598 C1830.9445 724.4598 1834.5825 728.098 1834.5825 732.5858 C1834.5825 732.5858 1834.5825 732.5858 1834.5825 732.5858 L1834.5826 755.4897 L1834.5825 755.5086 C1834.5825 756.9594 1833.4066 758.1354 1831.9559 758.1354 C1830.5051 758.1354 1829.3291 756.9594 1829.329 755.5087 L1829.3291 737.8771 L1829.329 737.896 C1829.329 737.0298 1828.6268 736.3275 1827.7605 736.3276 C1826.8943 736.3276 1826.192 737.0298 1826.1921 737.896 C1826.1921 737.896 1826.1921 737.8961 1826.1921 737.8961 L1826.1921 792.4536 L1826.192 792.4535 C1826.192 794.687 1824.3815 796.4976 1822.1481 796.4976 C1819.9144 796.4976 1818.1039 794.687 1818.1038 792.4536 L1818.1039 760.7433 L1818.1038 760.7432 C1818.1038 760.117 1817.5962 759.6094 1816.97 759.6094 C1816.3438 759.6094 1815.8361 760.117 1815.8362 760.7432 C1815.8362 760.7432 1815.8362 760.7433 1815.8362 760.7433 L1815.8362 792.4536 L1815.8361 792.4535 C1815.8361 794.687 1814.0256 796.4976 1811.7921 796.4976 C1809.5585 796.4976 1807.748 794.687 1807.7479 792.4536 L1807.748 737.8771 L1807.7479 737.896 C1807.7479 737.0298 1807.0458 736.3275 1806.1793 736.3276 C1805.3132 736.3276 1804.6108 737.0298 1804.6111 737.896 C1804.6111 737.896 1804.6111 737.8961 1804.6111 737.8961 L1804.6111 755.4897 L1804.6108 755.5086 C1804.6108 756.9594 1803.4349 758.1354 1801.9843 758.1354 C1800.5334 758.1354 1799.3574 756.9594 1799.3573 755.5087 L1799.3574 732.5858 L1799.3573 732.5858 C1799.3573 728.098 1802.9956 724.4598 1807.4833 724.4598 Z" clip-path="url(#clipPath45)" fill-rule="evenodd" stroke="none"/>
<ellipse clip-path="url(#clipPath45)" fill="none" rx="7.5" cx="1816.5" ry="7" cy="713" stroke="rgb(170,206,242)"/>
<line clip-path="url(#clipPath45)" fill="none" x1="1807" x2="1826" y1="724" y2="724" stroke="rgb(170,206,242)"/>
<path fill="none" d="M1825.5 724 A7.5 8 0 0 1 1833 732" clip-path="url(#clipPath45)" stroke="rgb(170,206,242)"/>
<line clip-path="url(#clipPath45)" fill="none" x1="1834" x2="1834" y1="732" y2="755" stroke="rgb(170,206,242)"/>
<path fill="none" d="M1833 755 A2 3 0 0 1 1829 755" clip-path="url(#clipPath45)" stroke="rgb(170,206,242)"/>
<line clip-path="url(#clipPath45)" fill="none" x1="1829" x2="1829" y1="755" y2="737" stroke="rgb(170,206,242)"/>
<path fill="none" d="M1828 737.5 A1 1.5 0 0 0 1826 737.5" clip-path="url(#clipPath45)" stroke="rgb(170,206,242)"/>
<line clip-path="url(#clipPath45)" fill="none" x1="1826" x2="1826" y1="737" y2="792" stroke="rgb(170,206,242)"/>
<path fill="none" d="M1825 792 A3.5 4 0 0 1 1818 792" clip-path="url(#clipPath45)" stroke="rgb(170,206,242)"/>
<line clip-path="url(#clipPath45)" fill="none" x1="1818" x2="1818" y1="792" y2="760" stroke="rgb(170,206,242)"/>
<path fill="none" d="M1817 760 A1 1 0 0 0 1815 760" clip-path="url(#clipPath45)" stroke="rgb(170,206,242)"/>
<line clip-path="url(#clipPath45)" fill="none" x1="1815" x2="1815" y1="760" y2="792" stroke="rgb(170,206,242)"/>
<path fill="none" d="M1814 792 A3.5 4 0 0 1 1807 792" clip-path="url(#clipPath45)" stroke="rgb(170,206,242)"/>
<line clip-path="url(#clipPath45)" fill="none" x1="1807" x2="1807" y1="792" y2="737" stroke="rgb(170,206,242)"/>
<path fill="none" d="M1806 737.5 A1 1.5 0 0 0 1804 737.5" clip-path="url(#clipPath45)" stroke="rgb(170,206,242)"/>
<line clip-path="url(#clipPath45)" fill="none" x1="1804" x2="1804" y1="737" y2="755" stroke="rgb(170,206,242)"/>
<path fill="none" d="M1803 755 A2 3 0 0 1 1799 755" clip-path="url(#clipPath45)" stroke="rgb(170,206,242)"/>
<line clip-path="url(#clipPath45)" fill="none" x1="1799" x2="1799" y1="755" y2="732" stroke="rgb(170,206,242)"/>
<path fill="none" d="M1799 732 A7.5 8 0 0 1 1806.5 724" clip-path="url(#clipPath45)" stroke="rgb(170,206,242)"/>
<text xml:space="preserve" x="1791" y="811" clip-path="url(#clipPath46)" stroke="none">Applicant</text>
<ellipse clip-path="url(#clipPath47)" fill="rgb(225,235,245)" rx="49.5" cx="1316.5" ry="24.5" cy="1164.5" stroke="none"/>
</g>
<g font-size="11" stroke-linecap="butt" fill="rgb(109,163,217)" font-family="'Segoe UI'" stroke="rgb(109,163,217)" stroke-width="1.0827">
<ellipse clip-path="url(#clipPath47)" fill="none" rx="49.5" cx="1316.5" ry="24.5" cy="1164.5"/>
<text x="1243" y="1205" clip-path="url(#clipPath48)" fill="black" stroke="none" font-weight="bold" xml:space="preserve">Manage Employee Accounts</text>
<ellipse clip-path="url(#clipPath49)" fill="rgb(225,235,245)" rx="49.5" cx="1227.5" ry="24.5" cy="1279.5" stroke="none"/>
<ellipse clip-path="url(#clipPath49)" fill="none" rx="49.5" cx="1227.5" ry="24.5" cy="1279.5"/>
<text x="1183" y="1320" clip-path="url(#clipPath50)" fill="black" stroke="none" font-weight="bold" xml:space="preserve">Modify Accounts</text>
<ellipse clip-path="url(#clipPath51)" fill="rgb(225,235,245)" rx="49.5" cx="1394.5" ry="24.5" cy="1279.5" stroke="none"/>
<ellipse clip-path="url(#clipPath51)" fill="none" rx="49.5" cx="1394.5" ry="24.5" cy="1279.5"/>
<text x="1352" y="1320" clip-path="url(#clipPath52)" fill="black" stroke="none" font-weight="bold" xml:space="preserve">Create Accounts</text>
<ellipse clip-path="url(#clipPath53)" fill="rgb(225,235,245)" rx="43.5" cx="1481.5" ry="21.5" cy="1164.5" stroke="none"/>
<ellipse clip-path="url(#clipPath53)" fill="none" rx="43.5" cx="1481.5" ry="21.5" cy="1164.5"/>
<text x="1447" y="1205" clip-path="url(#clipPath54)" fill="black" stroke="none" font-weight="bold" xml:space="preserve">View Reports</text>
<ellipse clip-path="url(#clipPath55)" fill="rgb(225,235,245)" rx="49.5" cx="1124.5" ry="24.5" cy="1159.5" stroke="none"/>
<ellipse clip-path="url(#clipPath55)" fill="none" rx="49.5" cx="1124.5" ry="24.5" cy="1159.5"/>
<text x="1073" y="1200" clip-path="url(#clipPath56)" fill="black" stroke="none" font-weight="bold" xml:space="preserve">Create Departments</text>
<circle clip-path="url(#clipPath57)" fill="rgb(170,206,242)" r="7" cx="1319" cy="1007" stroke="none"/>
<path fill="rgb(170,206,242)" d="M1309.9464 1018.6205 L1328.9575 1018.6205 L1328.9573 1018.6205 C1333.4452 1018.6204 1337.0834 1022.2585 1337.0834 1026.7463 C1337.0834 1026.7463 1337.0834 1026.7465 1337.0834 1026.7465 L1337.0835 1049.6504 L1337.0834 1049.6692 C1337.0834 1051.12 1335.9073 1052.2959 1334.4567 1052.2959 C1333.0059 1052.2961 1331.83 1051.12 1331.8298 1049.6693 L1331.83 1032.0378 L1331.8298 1032.0566 C1331.8298 1031.1904 1331.1276 1030.488 1330.2612 1030.4882 C1329.395 1030.4882 1328.6927 1031.1904 1328.6929 1032.0566 C1328.6929 1032.0566 1328.6929 1032.0566 1328.6929 1032.0566 L1328.6929 1086.6141 L1328.6927 1086.6141 C1328.6927 1088.8477 1326.8823 1090.6582 1324.6488 1090.6582 C1322.4152 1090.6583 1320.6047 1088.8477 1320.6046 1086.6141 L1320.6047 1054.9039 L1320.6046 1054.9038 C1320.6046 1054.2776 1320.097 1053.77 1319.4707 1053.77 C1318.8446 1053.77 1318.3369 1054.2776 1318.337 1054.9038 C1318.337 1054.9038 1318.337 1054.9039 1318.337 1054.9039 L1318.337 1086.6141 L1318.3369 1086.6141 C1318.3369 1088.8477 1316.5264 1090.6582 1314.293 1090.6582 C1312.0593 1090.6583 1310.2488 1088.8477 1310.2488 1086.6141 L1310.2488 1032.0378 L1310.2488 1032.0566 C1310.2488 1031.1904 1309.5465 1030.488 1308.6803 1030.4882 C1307.8141 1030.4882 1307.1117 1031.1904 1307.1118 1032.0566 C1307.1118 1032.0566 1307.1118 1032.0566 1307.1118 1032.0566 L1307.1118 1049.6504 L1307.1117 1049.6692 C1307.1117 1051.12 1305.9357 1052.2959 1304.485 1052.2959 C1303.0343 1052.2961 1301.8583 1051.12 1301.8582 1049.6693 L1301.8583 1026.7465 L1301.8582 1026.7465 C1301.8582 1022.2585 1305.4963 1018.6205 1309.9841 1018.6204 Z" clip-path="url(#clipPath57)" fill-rule="evenodd" stroke="none"/>
<circle clip-path="url(#clipPath57)" fill="none" r="7" cx="1319" cy="1007" stroke="rgb(170,206,242)" stroke-width="1"/>
<line clip-path="url(#clipPath57)" fill="none" x1="1309" x2="1328" y1="1018" y2="1018" stroke="rgb(170,206,242)" stroke-width="1"/>
<path fill="none" d="M1328 1018 A8 8 0 0 1 1336 1026" stroke-width="1" clip-path="url(#clipPath57)" stroke="rgb(170,206,242)"/>
<line clip-path="url(#clipPath57)" fill="none" x1="1337" x2="1337" y1="1026" y2="1049" stroke="rgb(170,206,242)" stroke-width="1"/>
<path fill="none" d="M1336 1049.5 A2.5 2.5 0 0 1 1331 1049.5" stroke-width="1" clip-path="url(#clipPath57)" stroke="rgb(170,206,242)"/>
<line clip-path="url(#clipPath57)" fill="none" x1="1331" x2="1331" y1="1049" y2="1032" stroke="rgb(170,206,242)" stroke-width="1"/>
<path fill="none" d="M1330 1031.5 A1 1.5 0 0 0 1328 1031.5" stroke-width="1" clip-path="url(#clipPath57)" stroke="rgb(170,206,242)"/>
<line clip-path="url(#clipPath57)" fill="none" x1="1328" x2="1328" y1="1032" y2="1086" stroke="rgb(170,206,242)" stroke-width="1"/>
<path fill="none" d="M1327 1086 A3.5 4 0 0 1 1320 1086" stroke-width="1" clip-path="url(#clipPath57)" stroke="rgb(170,206,242)"/>
<line clip-path="url(#clipPath57)" fill="none" x1="1320" x2="1320" y1="1086" y2="1054" stroke="rgb(170,206,242)" stroke-width="1"/>
<path fill="none" d="M1319 1054.5 A0.5 1.5 0 0 0 1318 1054.5" stroke-width="1" clip-path="url(#clipPath57)" stroke="rgb(170,206,242)"/>
<line clip-path="url(#clipPath57)" fill="none" x1="1318" x2="1318" y1="1054" y2="1086" stroke="rgb(170,206,242)" stroke-width="1"/>
<path fill="none" d="M1317 1086 A3.5 4 0 0 1 1310 1086" stroke-width="1" clip-path="url(#clipPath57)" stroke="rgb(170,206,242)"/>
<line clip-path="url(#clipPath57)" fill="none" x1="1310" x2="1310" y1="1086" y2="1032" stroke="rgb(170,206,242)" stroke-width="1"/>
<path fill="none" d="M1309 1031.5 A1 1.5 0 0 0 1307 1031.5" stroke-width="1" clip-path="url(#clipPath57)" stroke="rgb(170,206,242)"/>
<line clip-path="url(#clipPath57)" fill="none" x1="1307" x2="1307" y1="1032" y2="1049" stroke="rgb(170,206,242)" stroke-width="1"/>
<path fill="none" d="M1306 1049.5 A2.5 2.5 0 0 1 1301 1049.5" stroke-width="1" clip-path="url(#clipPath57)" stroke="rgb(170,206,242)"/>
<line clip-path="url(#clipPath57)" fill="none" x1="1301" x2="1301" y1="1049" y2="1026" stroke="rgb(170,206,242)" stroke-width="1"/>
<path fill="none" d="M1301 1026 A8 8 0 0 1 1309 1018" stroke-width="1" clip-path="url(#clipPath57)" stroke="rgb(170,206,242)"/>
</g>
<g font-size="11" font-family="'Segoe UI'" font-weight="bold" stroke-linecap="butt">
<text xml:space="preserve" x="1282" y="1105" clip-path="url(#clipPath58)" stroke="none">Administrator</text>
</g>
<g font-size="11" stroke-linecap="butt" fill="gray" font-family="'Segoe UI'" stroke-dasharray="3,3" stroke="gray" stroke-width="1.0827">
<line clip-path="url(#clipPath59)" fill="none" x1="1328" x2="1157" y1="780" y2="780"/>
<text x="1218" y="773" clip-path="url(#clipPath60)" fill="black" stroke="none" xml:space="preserve">«include»</text>
<line clip-path="url(#clipPath61)" fill="none" x1="1167" x2="1157" y1="775" y2="780" stroke-dasharray="none"/>
<line clip-path="url(#clipPath61)" fill="none" x1="1157" x2="1167" y1="780" y2="785" stroke-dasharray="none"/>
<line clip-path="url(#clipPath59)" fill="none" x1="1030" x2="1030" y1="102" y2="184"/>
<text x="981" y="142" clip-path="url(#clipPath62)" fill="black" stroke="none" xml:space="preserve">«extend»</text>
<line clip-path="url(#clipPath63)" fill="none" x1="1025" x2="1030" y1="174" y2="184" stroke-dasharray="none"/>
<line clip-path="url(#clipPath63)" fill="none" x1="1030" x2="1035" y1="184" y2="174" stroke-dasharray="none"/>
<line clip-path="url(#clipPath59)" fill="none" x1="876" x2="992" y1="214" y2="214"/>
<text x="909" y="206" clip-path="url(#clipPath64)" fill="black" stroke="none" xml:space="preserve">«extend»</text>
<line clip-path="url(#clipPath65)" fill="none" x1="982" x2="992" y1="219" y2="214" stroke-dasharray="none"/>
<line clip-path="url(#clipPath65)" fill="none" x1="992" x2="982" y1="214" y2="209" stroke-dasharray="none"/>
<line clip-path="url(#clipPath59)" fill="none" x1="1298" x2="1298" y1="107" y2="187"/>
<text x="1300" y="134" clip-path="url(#clipPath66)" fill="black" stroke="none" xml:space="preserve">«include»</text>
<line clip-path="url(#clipPath67)" fill="none" x1="1293" x2="1298" y1="177" y2="187" stroke-dasharray="none"/>
<line clip-path="url(#clipPath67)" fill="none" x1="1298" x2="1303" y1="187" y2="177" stroke-dasharray="none"/>
<line clip-path="url(#clipPath59)" fill="none" x1="1258" x2="1449" y1="376" y2="376" stroke-dasharray="none"/>
<line clip-path="url(#clipPath59)" fill="none" x1="1222" x2="1024" y1="366" y2="226" stroke-dasharray="none"/>
<line clip-path="url(#clipPath59)" fill="none" x1="1310" x2="1238" y1="236" y2="352" stroke-dasharray="none"/>
<line clip-path="url(#clipPath59)" fill="none" x1="1232" x2="1132" y1="424" y2="751" stroke-dasharray="none"/>
<line clip-path="url(#clipPath59)" fill="none" x1="1231" x2="757" y1="390" y2="727" stroke-dasharray="none"/>
<line clip-path="url(#clipPath59)" fill="none" x1="782" x2="629" y1="216" y2="216"/>
<text x="675" y="195" clip-path="url(#clipPath68)" fill="black" stroke="none" xml:space="preserve">«include»</text>
<line clip-path="url(#clipPath69)" fill="none" x1="639" x2="629" y1="211" y2="216" stroke-dasharray="none"/>
<line clip-path="url(#clipPath69)" fill="none" x1="629" x2="639" y1="216" y2="221" stroke-dasharray="none"/>
<line clip-path="url(#clipPath59)" fill="none" x1="167" x2="167" y1="387" y2="316"/>
<text x="169" y="354" clip-path="url(#clipPath70)" fill="black" stroke="none" xml:space="preserve">«include»</text>
<line clip-path="url(#clipPath71)" fill="none" x1="172" x2="167" y1="326" y2="316" stroke-dasharray="none"/>
<line clip-path="url(#clipPath71)" fill="none" x1="167" x2="162" y1="316" y2="326" stroke-dasharray="none"/>
<line clip-path="url(#clipPath59)" fill="none" x1="397" x2="583" y1="369" y2="232" stroke-dasharray="none"/>
<line clip-path="url(#clipPath59)" fill="none" x1="366" x2="163" y1="354" y2="194" stroke-dasharray="none"/>
<line clip-path="url(#clipPath59)" fill="none" x1="381" x2="381" y1="355" y2="147" stroke-dasharray="none"/>
<line clip-path="url(#clipPath59)" fill="none" x1="370" x2="212" y1="417" y2="308" stroke-dasharray="none"/>
<line clip-path="url(#clipPath59)" fill="none" x1="397" x2="606" y1="386" y2="386" stroke-dasharray="none"/>
<line clip-path="url(#clipPath59)" fill="none" x1="381" x2="456" y1="1080" y2="1210" stroke-dasharray="none"/>
<line clip-path="url(#clipPath59)" fill="none" x1="380" x2="293" y1="1078" y2="1210" stroke-dasharray="none"/>
<line clip-path="url(#clipPath59)" fill="none" x1="1826" x2="1928" y1="724" y2="608" stroke-dasharray="none"/>
<line clip-path="url(#clipPath59)" fill="none" x1="1806" x2="1665" y1="724" y2="606" stroke-dasharray="none"/>
<line clip-path="url(#clipPath59)" fill="none" x1="397" x2="1104" y1="1029" y2="790" stroke-dasharray="none"/>
<line clip-path="url(#clipPath59)" fill="none" x1="397" x2="723" y1="1022" y2="774" stroke-dasharray="none"/>
<line clip-path="url(#clipPath59)" fill="none" x1="389" x2="1115" y1="423" y2="750" stroke-dasharray="none"/>
<line clip-path="url(#clipPath59)" fill="none" x1="378" x2="723" y1="426" y2="727" stroke-dasharray="none"/>
<line clip-path="url(#clipPath59)" fill="none" x1="1227" x2="1292" y1="1255" y2="1186"/>
<text x="1293" y="1246" clip-path="url(#clipPath72)" fill="black" stroke="none" xml:space="preserve">«extend»</text>
<line clip-path="url(#clipPath73)" fill="none" x1="1288" x2="1292" y1="1197" y2="1186" stroke-dasharray="none"/>
<line clip-path="url(#clipPath73)" fill="none" x1="1292" x2="1281" y1="1186" y2="1190" stroke-dasharray="none"/>
<line clip-path="url(#clipPath59)" fill="none" x1="1394" x2="1324" y1="1255" y2="1190"/>
<text x="1310" y="1234" clip-path="url(#clipPath74)" fill="black" stroke="none" xml:space="preserve">«extend»</text>
<line clip-path="url(#clipPath75)" fill="none" x1="1334" x2="1324" y1="1193" y2="1190" stroke-dasharray="none"/>
<line clip-path="url(#clipPath75)" fill="none" x1="1324" x2="1328" y1="1190" y2="1200" stroke-dasharray="none"/>
<line clip-path="url(#clipPath59)" fill="none" x1="1316" x2="1316" y1="1090" y2="1140" stroke-dasharray="none"/>
<line clip-path="url(#clipPath59)" fill="none" x1="1328" x2="1491" y1="1085" y2="1143" stroke-dasharray="none"/>
<line clip-path="url(#clipPath59)" fill="none" x1="1310" x2="1123" y1="1086" y2="1135" stroke-dasharray="none"/>
<line clip-path="url(#clipPath59)" fill="none" x1="1301" x2="756" y1="1037" y2="774" stroke-dasharray="none"/>
<line clip-path="url(#clipPath59)" fill="none" x1="1302" x2="1137" y1="1021" y2="790" stroke-dasharray="none"/>
</g>
</g>
</svg>